#!OML:ASF F:\VICON\USERDATA\INSTALL\rory3\rory3.ASF
:FULLY-SPECIFIED
:DEGREES
3634
root -5.79777 18.5302 -0.164606 9.4933 27.176 356.84
lowerback 15.2073 -3.02722 -2.32574
upperback 7.12044 -4.27757 -5.42315
thorax -1.21238 -2.03527 -3.69794
lowerneck -10.4905 13.2318 -1.43625
upperneck 18.3283 19.3808 -4.96165
head 7.75737 8.63399 0.522279
rclavicle 6.52014e-014 -2.22639e-014
rhumerus -42.0696 28.9825 -61.5352
rradius 119.535
rwrist 16.4662
rhand -14.4876 3.94236
rfingers 7.12502
rthumb 11.6589 334.287
lclavicle 6.52014e-014 -2.22639e-014
lhumerus -11.9979 -40.0516 98.4119
lradius 66.2479
lwrist 100.813
lhand -34.8719 -297.238
lfingers 7.12502
lthumb -8.02117 -452.59
rfemur -21.3876 15.8648 17.6466
rtibia 30.3088
rfoot -18.9447 -12.7139
rtoes -6.20412
lfemur -28.7355 4.5996 -1.81369
ltibia 36.1413
lfoot -5.47988 11.1219
ltoes -2.02658
3635
root -5.76399 18.5272 -0.198659 9.70981 27.0774 356.878
lowerback 15.1243 -3.0349 -2.45428
upperback 7.11853 -4.30032 -5.41601
thorax -1.16138 -2.04946 -3.61829
lowerneck -10.4551 13.2689 -1.35169
upperneck 18.2356 19.4182 -5.03147
head 7.73693 8.65601 0.488142
rclavicle 1.74931e-014 3.97569e-014
rhumerus -42.0555 29.6791 -62.0273
rradius 119.276
rwrist 17.0065
rhand -15.223 3.66291
rfingers 7.12502
rthumb 10.9496 333.968
lclavicle 1.74931e-014 3.97569e-014
lhumerus -12.2469 -39.3446 98.7513
lradius 65.8083
lwrist 100.072
lhand -37.8018 -296.351
lfingers 7.12502
lthumb -10.8481 -453.349
rfemur -21.6638 16.0763 17.3275
rtibia 30.2601
rfoot -18.903 -12.8385
rtoes -6.26665
lfemur -28.5238 3.90765 -1.80789
ltibia 35.9149
lfoot -5.80654 10.2048
ltoes -4.30169
3636
root -5.72473 18.5244 -0.234025 9.85063 27.0022 356.717
lowerback 14.9968 -3.05004 -2.32031
upperback 7.1458 -4.29459 -5.37998
thorax -1.07222 -2.04542 -3.66318
lowerneck -10.4274 13.2749 -1.25652
upperneck 18.089 19.4146 -5.14463
head 7.70499 8.65808 0.43413
rclavicle -3.49861e-014 -1.28812e-013
rhumerus -42.0973 30.1315 -62.509
rradius 119.149
rwrist 17.5093
rhand -15.708 3.4143
rfingers 7.12502
rthumb 10.4818 333.696
lclavicle -3.49861e-014 -1.28812e-013
lhumerus -12.4893 -38.6757 99.0851
lradius 65.4721
lwrist 99.4879
lhand -40.042 -295.946
lfingers 7.12502
lthumb -13.0082 -453.628
rfemur -21.9333 16.2694 17.1899
rtibia 30.2059
rfoot -18.8957 -12.9311
rtoes -6.28879
lfemur -28.3974 3.2179 -1.60799
ltibia 35.7249
lfoot -6.24843 9.18715
ltoes -4.9382
3637
root -5.67933 18.5224 -0.275512 9.96406 26.9819 356.54
lowerback 14.9455 -3.09824 -2.06615
upperback 7.18562 -4.32008 -5.35857
thorax -1.02178 -2.05372 -3.78293
lowerneck -10.4221 13.2705 -1.21138
upperneck 17.9125 19.3907 -5.20084
head 7.65537 8.65402 0.401652
rclavicle 5.88403e-014 -3.49861e-014
rhumerus -42.1157 30.4005 -62.9811
rradius 119.092
rwrist 17.8212
rhand -15.9125 3.31754
rfingers 7.12502
rthumb 10.2846 333.589
lclavicle 5.88403e-014 -3.49861e-014
lhumerus -12.8393 -37.9913 99.4342
lradius 65.2752
lwrist 98.6694
lhand -40.8248 -295.63
lfingers 7.12502
lthumb -13.7627 -453.895
rfemur -22.2147 16.2682 17.061
rtibia 30.1974
rfoot -18.9098 -12.8553
rtoes -6.32534
lfemur -28.3146 2.51174 -1.43536
ltibia 35.5474
lfoot -6.69238 8.41601
ltoes -6.30298
3638
root -5.64079 18.5186 -0.329598 10.1123 27.2111 356.422
lowerback 15.1192 -3.21428 -1.86941
upperback 7.20727 -4.45044 -5.30206
thorax -1.10865 -2.11448 -3.80496
lowerneck -10.533 13.25 -1.28999
upperneck 17.7977 19.3475 -5.11344
head 7.61824 8.63998 0.43653
rclavicle 6.04305e-014 5.08889e-014
rhumerus -42.0999 30.5126 -63.3599
rradius 119.018
rwrist 18.2784
rhand -15.9522 3.64838
rfingers 7.12502
rthumb 10.2462 333.918
lclavicle 6.04305e-014 5.08889e-014
lhumerus -13.2991 -37.0605 99.8755
lradius 65.1873
lwrist 97.4801
lhand -40.2448 -295.611
lfingers 7.12502
lthumb -13.2038 -453.951
rfemur -22.5165 16.076 16.9044
rtibia 30.1509
rfoot -18.8311 -12.8819
rtoes -6.51997
lfemur -28.4068 1.59012 -1.29677
ltibia 35.3399
lfoot -7.11004 8.08976
ltoes -8.49162
3639
root -5.61607 18.5081 -0.400528 10.3759 27.8889 356.607
lowerback 15.6065 -3.46579 -1.8593
upperback 7.20395 -4.79343 -5.27273
thorax -1.3868 -2.28159 -3.69741
lowerneck -10.5487 13.2207 -1.29339
upperneck 17.5884 19.293 -5.15992
head 7.55521 8.62071 0.410262
rclavicle 1.27222e-014 -4.13472e-014
rhumerus -42.0509 30.4486 -63.6437
rradius 118.934
rwrist 18.9523
rhand -15.7374 3.93664
rfingers 7.12502
rthumb 10.4535 334.217
lclavicle 1.27222e-014 -4.13472e-014
lhumerus -13.8028 -35.9458 100.311
lradius 65.3601
lwrist 96.4966
lhand -40.3306 -295.93
lfingers 7.12502
lthumb -13.2865 -453.626
rfemur -22.7996 15.68 16.512
rtibia 30.1225
rfoot -18.7252 -13.1927
rtoes -6.71896
lfemur -28.7993 0.172623 -1.35639
ltibia 35.0946
lfoot -7.50862 8.17404
ltoes -8.6538
3640
root -5.57216 18.5083 -0.441067 10.5065 27.8991 356.62
lowerback 15.7139 -3.49432 -1.85095
upperback 7.19876 -4.83486 -5.31519
thorax -1.45542 -2.3007 -3.734
lowerneck -10.3812 13.2336 -1.07017
upperneck 17.3783 19.2826 -5.35852
head 7.49951 8.62684 0.301158
rclavicle -1.59028e-014 6.67916e-014
rhumerus -42.1802 30.4779 -64.113
rradius 118.811
rwrist 19.3211
rhand -15.5798 4.09887
rfingers 7.12502
rthumb 10.6055 334.386
lclavicle -1.59028e-014 6.67916e-014
lhumerus -14.0959 -35.0786 100.55
lradius 65.2856
lwrist 95.7083
lhand -40.5955 -296.05
lfingers 7.12502
lthumb -13.5417 -453.49
rfemur -22.9679 15.7636 16.2225
rtibia 30.0947
rfoot -18.7108 -13.3109
rtoes -6.89207
lfemur -28.7228 -0.614669 -1.3779
ltibia 34.801
lfoot -8.13707 8.31812
ltoes -8.01404
3641
root -5.53314 18.5122 -0.475539 10.5371 27.8353 356.6
lowerback 15.8833 -3.46094 -2.00728
upperback 7.21743 -4.81651 -5.28533
thorax -1.50833 -2.29352 -3.60983
lowerneck -10.2916 13.2464 -1.09438
upperneck 17.2183 19.2848 -5.37619
head 7.43088 8.63633 0.285948
rclavicle -1.74931e-014 -7.95139e-015
rhumerus -42.1964 30.6102 -64.4983
rradius 118.63
rwrist 19.1988
rhand -15.5942 4.23733
rfingers 7.12502
rthumb 10.5916 334.524
lclavicle -1.74931e-014 -7.95139e-015
lhumerus -14.0263 -34.5768 100.595
lradius 64.9072
lwrist 94.9381
lhand -40.4236 -296.226
lfingers 7.12502
lthumb -13.3761 -453.325
rfemur -23.0231 16.0312 16.011
rtibia 30.0788
rfoot -18.7821 -13.5485
rtoes -6.99814
lfemur -28.5082 -1.07388 -1.42855
ltibia 34.4792
lfoot -8.51784 8.48916
ltoes -9.16849
3642
root -5.49719 18.5133 -0.518828 10.6434 27.8479 356.643
lowerback 16.0944 -3.44926 -2.24609
upperback 7.24768 -4.83808 -5.23485
thorax -1.56397 -2.30714 -3.40908
lowerneck -10.2941 13.2368 -1.13311
upperneck 17.0957 19.2671 -5.39783
head 7.3892 8.63022 0.27793
rclavicle -2.54444e-014 4.29375e-014
rhumerus -42.1016 30.7281 -64.7963
rradius 118.423
rwrist 18.9684
rhand -15.6877 4.15625
rfingers 7.12502
rthumb 10.5014 334.439
lclavicle -2.54444e-014 4.29375e-014
lhumerus -13.8315 -34.0695 100.54
lradius 64.7488
lwrist 94.797
lhand -40.9344 -296.09
lfingers 7.12502
lthumb -13.8684 -453.428
rfemur -23.1264 16.1437 15.7337
rtibia 29.9839
rfoot -18.6981 -13.7529
rtoes -7.07076
lfemur -28.4906 -1.50028 -1.53384
ltibia 34.1693
lfoot -8.82966 8.84937
ltoes -10.2613
3643
root -5.45596 18.5121 -0.568323 10.8279 27.934 356.646
lowerback 16.2548 -3.48901 -2.28891
upperback 7.26331 -4.90007 -5.21666
thorax -1.62935 -2.33733 -3.34706
lowerneck -10.2235 13.2349 -1.00773
upperneck 16.8473 19.2543 -5.61029
head 7.33012 8.62761 0.1832
rclavicle -1.59028e-014 -1.90833e-014
rhumerus -42.0616 30.7224 -65.1566
rradius 118.235
rwrist 18.9534
rhand -15.7408 3.63252
rfingers 7.12502
rthumb 10.4502 333.912
lclavicle -1.59028e-014 -1.90833e-014
lhumerus -13.768 -33.3632 100.52
lradius 64.5576
lwrist 94.268
lhand -40.8275 -296.357
lfingers 7.12502
lthumb -13.7653 -453.168
rfemur -23.3523 16.0877 15.4379
rtibia 29.8779
rfoot -18.6136 -13.8025
rtoes -7.17092
lfemur -28.7002 -1.8117 -1.64976
ltibia 33.9251
lfoot -9.18708 9.15635
ltoes -10.5979
